<svg xmlns="http://www.w3.org/2000/svg" viewBox="0 0 700 700">
<g fill="none" stroke="#2D8CFF" stroke-width="1.5" opacity=".45">
<path d="M120 60h90l45 78-45 78h-90l-45-78z"/>
<path d="M320 20h140l70 121-70 121H320l-70-121z"/>
<path d="M500 210h100l50 86-50 86H500l-50-86z"/>
<path d="M170 300h160l80 139-80 139H170L90 439z"/>
<path d="M420 460h90l45 78-45 78h-90l-45-78z"/>
</g>
<g fill="#2D8CFF" opacity=".35">
<circle cx="120" cy="60" r="5"/><circle cx="210" cy="60" r="5"/><circle cx="255" cy="138" r="5"/><circle cx="210" cy="216" r="5"/>
<circle cx="320" cy="20" r="5"/><circle cx="530" cy="141" r="5"/><circle cx="600" cy="296" r="5"/><circle cx="500" cy="382" r="5"/>
</g>
</svg>