<svg xmlns="http://www.w3.org/2000/svg" viewBox="0 0 900 260" role="img" aria-labelledby="title desc">
<title>Julie Zimmerman</title>
<desc>Modern geometric Julie Zimmerman logo</desc>
<defs>
  <linearGradient id="g" x1="0" x2="1" y1="0" y2="1">
    <stop stop-color="#53C2B0"/>
    <stop offset=".5" stop-color="#4DB4FF"/>
    <stop offset="1" stop-color="#6F78D8"/>
  </linearGradient>
</defs>
<g fill="none" stroke="url(#g)" stroke-width="4">
  <path d="M55 87l26-45h52l26 45-26 45H81z"/>
  <path d="M133 132l35-60h70l35 60-35 60h-70z" opacity=".65"/>
  <path d="M88 170l23-40h46l23 40-23 40h-46z"/>
  <path d="M214 74l22-38h44l22 38-22 38h-44z" opacity=".75"/>
  <path d="M250 154l28-49h56l28 49-28 49h-56z"/>
  <path d="M170 207l18-31h36l18 31-18 31h-36z" opacity=".55"/>
</g>
<g fill="url(#g)">
  <circle cx="81" cy="42" r="6"/><circle cx="133" cy="42" r="6"/>
  <circle cx="159" cy="87" r="6"/><circle cx="133" cy="132" r="6"/>
  <circle cx="81" cy="132" r="6"/><circle cx="55" cy="87" r="6"/>
  <circle cx="278" cy="105" r="6"/><circle cx="334" cy="154" r="6"/>
  <circle cx="306" cy="203" r="6"/><circle cx="250" cy="154" r="6"/>
</g>
<g font-family="Space Grotesk, Arial, sans-serif">
  <text x="420" y="112" fill="#0F172A" font-size="70" font-weight="700" letter-spacing="14">JULIE</text>
  <text x="420" y="176" fill="#2D8CFF" font-size="46" font-weight="600" letter-spacing="11">ZIMMERMAN</text>
  <path d="M420 198h390" stroke="#4DB4FF" stroke-width="2"/>
  <circle cx="615" cy="198" r="6" fill="#2D8CFF"/>
  <text x="420" y="232" fill="#475569" font-size="18" font-weight="500" letter-spacing="8">SYSTEMS. SOLUTIONS. INSIGHT.</text>
</g>
</svg>