<svg xmlns="http://www.w3.org/2000/svg" width="512" height="512" viewBox="0 0 256 256" role="img" aria-labelledby="title desc">
<title id="title">Final council logo</title><desc id="desc">Hexagon logo for Final, representing Synthesis.</desc>
<defs><filter id="shadow" x="-20%" y="-20%" width="140%" height="140%"><feDropShadow dx="0" dy="8" stdDeviation="8" flood-color="#000000" flood-opacity=".20"/></filter><linearGradient id="g" x1="0" y1="0" x2="1" y2="1"><stop offset="0%" stop-color="#7B5CCB"/><stop offset="100%" stop-color="#F4C95D"/></linearGradient></defs>
<rect width="256" height="256" rx="28" fill="#f9f6f1"/>
<polygon points="195.5,151.0 128.0,190.0 60.5,151.0 60.5,73.0 128.0,34.0 195.5,73.0" fill="url(#g)" filter="url(#shadow)"/>
<polygon points="186.9,146.0 128.0,180.0 69.1,146.0 69.1,78.0 128.0,44.0 186.9,78.0" fill="none" stroke="#ffffff" stroke-width="4" opacity=".35"/>
<polygon points="136.8,119.5 110.0,135.0 83.2,119.5 83.2,88.5 110.0,73.0 136.8,88.5" fill="none" stroke="#ffffff" stroke-width="6" opacity=".85"/><polygon points="172.8,119.5 146.0,135.0 119.2,119.5 119.2,88.5 146.0,73.0 172.8,88.5" fill="none" stroke="#ffffff" stroke-width="6" opacity=".85"/><polygon points="154.8,151.5 128.0,167.0 101.2,151.5 101.2,120.5 128.0,105.0 154.8,120.5" fill="none" stroke="#ffffff" stroke-width="6" opacity=".85"/><circle cx="128" cy="115" r="9" fill="#ffffff"/>
<text x="128" y="205" text-anchor="middle" font-family="Inter, Arial, sans-serif" font-size="24" font-weight="800" fill="#1a1a1a">Final</text>
<text x="128" y="226" text-anchor="middle" font-family="Inter, Arial, sans-serif" font-size="11" letter-spacing="1.5" fill="#666">SYNTHESIS</text>
</svg>