<svg xmlns="http://www.w3.org/2000/svg" viewBox="0 0 760 520">
<rect width="760" height="520" fill="#f7f9fc"/>
<g font-family="JetBrains Mono, monospace" fill="#0f172a" font-size="12" opacity=".08">
<text x="20" y="24">0100111010010110</text>
<text x="140" y="24">1011010010110010</text>
<text x="260" y="24">0100111010010110</text>
<text x="380" y="24">1011010010110010</text>
<text x="500" y="24">0100111010010110</text>
<text x="620" y="24">1011010010110010</text>
<text x="20" y="58">0100111010010110</text>
<text x="140" y="58">1011010010110010</text>
<text x="260" y="58">0100111010010110</text>
<text x="380" y="58">1011010010110010</text>
<text x="500" y="58">0100111010010110</text>
<text x="620" y="58">1011010010110010</text>
<text x="20" y="92">0100111010010110</text>
<text x="140" y="92">1011010010110010</text>
<text x="260" y="92">0100111010010110</text>
<text x="380" y="92">1011010010110010</text>
<text x="500" y="92">0100111010010110</text>
<text x="620" y="92">1011010010110010</text>
<text x="20" y="126">0100111010010110</text>
<text x="140" y="126">1011010010110010</text>
<text x="260" y="126">0100111010010110</text>
<text x="380" y="126">1011010010110010</text>
<text x="500" y="126">0100111010010110</text>
<text x="620" y="126">1011010010110010</text>
<text x="20" y="160">0100111010010110</text>
<text x="140" y="160">1011010010110010</text>
<text x="260" y="160">0100111010010110</text>
<text x="380" y="160">1011010010110010</text>
<text x="500" y="160">0100111010010110</text>
<text x="620" y="160">1011010010110010</text>
<text x="20" y="194">0100111010010110</text>
<text x="140" y="194">1011010010110010</text>
<text x="260" y="194">0100111010010110</text>
<text x="380" y="194">1011010010110010</text>
<text x="500" y="194">0100111010010110</text>
<text x="620" y="194">1011010010110010</text>
<text x="20" y="228">0100111010010110</text>
<text x="140" y="228">1011010010110010</text>
<text x="260" y="228">0100111010010110</text>
<text x="380" y="228">1011010010110010</text>
<text x="500" y="228">0100111010010110</text>
<text x="620" y="228">1011010010110010</text>
<text x="20" y="262">0100111010010110</text>
<text x="140" y="262">1011010010110010</text>
<text x="260" y="262">0100111010010110</text>
<text x="380" y="262">1011010010110010</text>
<text x="500" y="262">0100111010010110</text>
<text x="620" y="262">1011010010110010</text>
<text x="20" y="296">0100111010010110</text>
<text x="140" y="296">1011010010110010</text>
<text x="260" y="296">0100111010010110</text>
<text x="380" y="296">1011010010110010</text>
<text x="500" y="296">0100111010010110</text>
<text x="620" y="296">1011010010110010</text>
<text x="20" y="330">0100111010010110</text>
<text x="140" y="330">1011010010110010</text>
<text x="260" y="330">0100111010010110</text>
<text x="380" y="330">1011010010110010</text>
<text x="500" y="330">0100111010010110</text>
<text x="620" y="330">1011010010110010</text>
<text x="20" y="364">0100111010010110</text>
<text x="140" y="364">1011010010110010</text>
<text x="260" y="364">0100111010010110</text>
<text x="380" y="364">1011010010110010</text>
<text x="500" y="364">0100111010010110</text>
<text x="620" y="364">1011010010110010</text>
<text x="20" y="398">0100111010010110</text>
<text x="140" y="398">1011010010110010</text>
<text x="260" y="398">0100111010010110</text>
<text x="380" y="398">1011010010110010</text>
<text x="500" y="398">0100111010010110</text>
<text x="620" y="398">1011010010110010</text>
<text x="20" y="432">0100111010010110</text>
<text x="140" y="432">1011010010110010</text>
<text x="260" y="432">0100111010010110</text>
<text x="380" y="432">1011010010110010</text>
<text x="500" y="432">0100111010010110</text>
<text x="620" y="432">1011010010110010</text>
<text x="20" y="466">0100111010010110</text>
<text x="140" y="466">1011010010110010</text>
<text x="260" y="466">0100111010010110</text>
<text x="380" y="466">1011010010110010</text>
<text x="500" y="466">0100111010010110</text>
<text x="620" y="466">1011010010110010</text>
<text x="20" y="500">0100111010010110</text>
<text x="140" y="500">1011010010110010</text>
<text x="260" y="500">0100111010010110</text>
<text x="380" y="500">1011010010110010</text>
<text x="500" y="500">0100111010010110</text>
<text x="620" y="500">1011010010110010</text>
</g>
<g stroke="#2d8cff" stroke-width="1" opacity=".22">
<path d="M80 70h140l70 121-70 121H80L10 191z" fill="none"/>
<path d="M360 115h100l50 86-50 86H360l-50-86z" fill="none"/>
<path d="M500 280h150l75 130-75 130H500l-75-130z" fill="none"/>
</g>
</svg>