<svg xmlns="http://www.w3.org/2000/svg" width="512" height="512" viewBox="0 0 256 256" role="img" aria-labelledby="title desc">
<title id="title">Yoongi council logo</title><desc id="desc">Hexagon logo for Yoongi, representing Tooling.</desc>
<defs><filter id="shadow" x="-20%" y="-20%" width="140%" height="140%"><feDropShadow dx="0" dy="8" stdDeviation="8" flood-color="#000000" flood-opacity=".20"/></filter></defs>
<rect width="256" height="256" rx="28" fill="#f9f6f1"/>
<polygon points="195.5,151.0 128.0,190.0 60.5,151.0 60.5,73.0 128.0,34.0 195.5,73.0" fill="#444444" filter="url(#shadow)"/>
<polygon points="186.9,146.0 128.0,180.0 69.1,146.0 69.1,78.0 128.0,44.0 186.9,78.0" fill="none" stroke="#ffffff" stroke-width="4" opacity=".35"/>
<circle cx="128" cy="106" r="27" fill="none" stroke="#ffffff" stroke-width="9"/><circle cx="128" cy="106" r="9" fill="#ffffff"/><path d="M128 58 V74 M128 138 V154 M80 106 H96 M160 106 H176 M94 72 L105 83 M151 129 L162 140 M162 72 L151 83 M105 129 L94 140" stroke="#ffffff" stroke-width="9" stroke-linecap="round"/>
<text x="128" y="205" text-anchor="middle" font-family="Inter, Arial, sans-serif" font-size="24" font-weight="800" fill="#1a1a1a">Yoongi</text>
<text x="128" y="226" text-anchor="middle" font-family="Inter, Arial, sans-serif" font-size="11" letter-spacing="1.5" fill="#666">TOOLING</text>
</svg>